# xmcd
#
# Track frame offsets:
#	150
#	6057
#	11945
#	21240
#	30460
#	39735
#	48980
#	58232
#	67502
#	76747
#	86000
#	95267
#	104520
#	113780
#	123045
#	132285
#	168559
#	204815
#	241110
#	277372
#	300132
#	322922
#	323500
#	324117
#	324647
#
# Disc length: 4335 seconds
#
# Revision: 1
# Processed by: cddbd v1.5.1PL0 Copyright (c) Steve Scherf et al.
# Submitted via: CDex 1.50Beta5
#
DISCID=3810ed19
DTITLE=効果音 - 超本格宴会御用達効果音集盛り上げCdスペシャルVol.2対決編プロフェッショナルバージョン
DYEAR=1900
DGENRE=Unclassifiable
TTITLE0=栄光の対決戦オープニング
TTITLE1=正規の対決戦オープニング
TTITLE2=ヒーローの登場
TTITLE3=強い奴の登場
TTITLE4=スパイの登場
TTITLE5=サメ野郎の登場
TTITLE6=破壊野郎の登場
TTITLE7=仕置き人の登場
TTITLE8=お祭り野郎の登場
TTITLE9=アニメ野郎の登場
TTITLE10=戦うビジネスマンの登場
TTITLE11=演歌野郎の登場
TTITLE12=社長の登場
TTITLE13=本当に強い奴の登場
TTITLE14=ヒゲダンスで登場
TTITLE15=世紀の大対決
TTITLE16=スポーツ対決
TTITLE17=ゲーム対決
TTITLE18=ヒゲダンス対決
TTITLE19=感動のエンディング
TTITLE20=壮大なエンディング
TTITLE21=カーン(勝負開始ゴング)
TTITLE22=カンカンカン(勝負終了ゴング)
TTITLE23=ドドーン(アタック音)
TTITLE24=バコーン(爆発音)
EXTD=
EXTT0=
EXTT1=
EXTT2=
EXTT3=
EXTT4=
EXTT5=
EXTT6=
EXTT7=
EXTT8=
EXTT9=
EXTT10=
EXTT11=
EXTT12=
EXTT13=
EXTT14=
EXTT15=
EXTT16=
EXTT17=
EXTT18=
EXTT19=
EXTT20=
EXTT21=
EXTT22=
EXTT23=
EXTT24=
PLAYORDER=
